<svg width="29" height="30" viewBox="0 0 29 30" fill="none" xmlns="http://www.w3.org/2000/svg">
<path fill-rule="evenodd" clip-rule="evenodd" d="M19.087 10.5746C19.087 13.3712 16.9016 15.6135 14.1761 15.6135C11.4507 15.6135 9.26529 13.3712 9.26529 10.5746C9.26529 7.77703 11.4507 5.5368 14.1761 5.5368C16.9016 5.5368 19.087 7.77703 19.087 10.5746ZM14.1762 24.5795C10.1731 24.5795 6.75508 23.9321 6.75508 21.3425C6.75508 18.7518 10.1512 18.0808 14.1762 18.0808C18.1792 18.0808 21.5973 18.7282 21.5973 21.3189C21.5973 23.9086 18.2012 24.5795 14.1762 24.5795ZM21.1856 10.6655C21.1856 12.0911 20.7688 13.4192 20.0375 14.5232C19.9623 14.6368 20.0292 14.7901 20.1618 14.8137C20.3446 14.8458 20.5337 14.8641 20.7259 14.8694C22.6428 14.9209 24.3633 13.655 24.8387 11.7492C25.5427 8.91836 23.4754 6.37694 20.8429 6.37694C20.5567 6.37694 20.283 6.40802 20.0166 6.46376C19.9801 6.47233 19.9414 6.48948 19.9205 6.52271C19.8954 6.56344 19.9142 6.61811 19.9393 6.65348C20.7301 7.79074 21.1856 9.17775 21.1856 10.6655ZM24.3603 16.8584C25.6483 17.1167 26.4955 17.6441 26.8465 18.4105C27.1432 19.0397 27.1432 19.7696 26.8465 20.3977C26.3096 21.5864 24.5786 21.968 23.9059 22.0666C23.7669 22.0881 23.6552 21.9648 23.6698 21.8222C24.0135 18.5284 21.2797 16.9666 20.5724 16.6076C20.5421 16.5915 20.5359 16.5668 20.539 16.5518C20.5411 16.5411 20.5536 16.524 20.5766 16.5207C22.107 16.4918 23.7523 16.7062 24.3603 16.8584ZM7.74557 14.8693C7.93778 14.864 8.12582 14.8468 8.30967 14.8136C8.44234 14.79 8.5092 14.6367 8.43399 14.5231C7.70274 13.4191 7.28593 12.091 7.28593 10.6654C7.28593 9.17765 7.74139 7.79064 8.53218 6.65338C8.55725 6.61801 8.57501 6.56334 8.55098 6.52261C8.53009 6.49045 8.4904 6.47223 8.45488 6.46366C8.18745 6.40792 7.91376 6.37683 7.62753 6.37683C4.99504 6.37683 2.92771 8.91825 3.63284 11.7491C4.10815 13.6549 5.82866 14.9208 7.74557 14.8693ZM7.93211 16.5512C7.93524 16.5673 7.92897 16.5908 7.89972 16.608C7.19146 16.9671 4.45764 18.5288 4.80133 21.8216C4.81595 21.9652 4.70522 22.0874 4.56629 22.0671C3.89354 21.9685 2.16258 21.5869 1.62563 20.3982C1.32791 19.769 1.32791 19.0401 1.62563 18.4109C1.97663 17.6445 2.82279 17.1171 4.11083 16.8577C4.71985 16.7066 6.36411 16.4922 7.89554 16.5212C7.91853 16.5244 7.93002 16.5415 7.93211 16.5512Z" fill="#2E3543" fill-opacity="0.3"/>
</svg>
