<svg width="46" height="43" viewBox="0 0 46 43" fill="none" xmlns="http://www.w3.org/2000/svg">
<path d="M0 21.3147C0 9.5429 9.5429 0 21.3147 0H24.2853C36.0571 0 45.6 9.5429 45.6 21.3147V21.3147C45.6 33.0864 36.0571 42.6293 24.2853 42.6293H21.3147C9.54291 42.6293 0 33.0864 0 21.3147V21.3147Z" fill="#50AED2" fill-opacity="0.06"/>
<path fill-rule="evenodd" clip-rule="evenodd" d="M13.1742 21.8111C13.1742 27.2825 17.714 31.7248 23.3076 31.7248C28.9113 31.7248 33.4409 27.2825 33.4409 21.8111C33.4409 16.3376 28.9113 11.8973 23.3076 11.8973C17.714 11.8973 13.1742 16.3376 13.1742 21.8111ZM22.4158 25.5684C22.4158 26.0433 22.8212 26.4408 23.3076 26.4408C23.794 26.4408 24.1892 26.0433 24.1892 25.5684V21.1865C24.1892 20.7096 23.794 20.324 23.3076 20.324C22.8212 20.324 22.4158 20.7096 22.4158 21.1865V25.5684ZM23.3177 17.1704C22.8212 17.1704 22.426 17.567 22.426 18.0428C22.426 18.5187 22.8212 18.9053 23.3076 18.9053C23.8041 18.9053 24.1993 18.5187 24.1993 18.0428C24.1993 17.567 23.8041 17.1704 23.3177 17.1704Z" fill="#50AED2"/>
</svg>
