<svg width="20" height="24" viewBox="0 0 20 24" fill="none" xmlns="http://www.w3.org/2000/svg">
<path d="M6.75349 23.6267C3.37064 23.6074 0.575439 16.7052 0.575439 13.1899C0.575439 7.44779 4.88271 6.19061 6.54319 6.19061C7.31964 6.24624 8.08098 6.43348 8.79465 6.74433C9.20494 6.92389 9.63735 7.04789 10.0804 7.11303C10.3989 7.05118 10.7086 6.95084 11.0029 6.81421C11.8769 6.41133 12.8212 6.183 13.7828 6.14203H13.7894C14.7205 6.12324 15.6421 6.33297 16.4734 6.75285C17.3047 7.17274 18.0204 7.78998 18.5579 8.55056L18.906 9.07299L18.4055 9.45035C17.8062 9.81513 17.3075 10.3239 16.9548 10.9303C16.602 11.5368 16.4064 12.2218 16.3856 12.923C16.3651 13.673 16.5603 14.4131 16.948 15.0555C17.3356 15.6978 17.8994 16.2154 18.5725 16.5468C18.886 16.7352 19.2101 16.9295 19.2101 17.3548C19.2101 17.6323 16.9952 23.5921 13.7781 23.5921C13.1416 23.5791 12.5156 23.4271 11.9439 23.1468C11.4368 22.893 10.8784 22.7584 10.3114 22.7535C9.86443 22.8 9.42784 22.918 9.01827 23.1029C8.30913 23.4128 7.54919 23.5901 6.77612 23.626L6.75349 23.6267Z" fill="black"/>
<path d="M14.1234 0.907715C14.2072 3.92853 12.047 6.02426 9.88932 5.89249C9.53393 3.48196 12.047 0.907715 14.1234 0.907715Z" fill="black"/>
</svg>
