<svg width="58" height="61" viewBox="0 0 58 61" fill="none" xmlns="http://www.w3.org/2000/svg">
<path d="M57.5706 0.791066V0.711914H53.3048C45.7849 0.711914 36.6721 0.720395 29.2756 5.73005L29.2705 5.7244L29.2219 5.76398C28.1124 6.51969 27.0396 7.38329 26.0196 8.38259L26.0177 8.38447C25.5107 8.88058 24.9807 9.41391 24.4394 9.98117C24.2434 10.1852 24.0493 10.3958 23.8547 10.6073C23.4999 10.9913 23.1432 11.3871 22.7856 11.8007L22.7696 11.8177L22.7701 11.8186C22.7437 11.8493 22.7178 11.8818 22.6914 11.9124C22.6688 11.9392 22.6452 11.9628 22.6226 11.9896C22.6236 11.9901 22.6245 11.9906 22.6255 11.9911C19.4306 15.7286 16.3004 20.6323 15.5461 26.6182C15.0942 30.1842 16.3531 33.952 19.001 36.9555C21.6898 40.0061 25.3341 41.7555 29.0014 41.7555C32.6664 41.7555 36.3112 40.0057 39 36.9569C41.6474 33.9534 42.9067 30.1847 42.4563 26.6196C41.8438 21.7583 39.6606 17.6137 37.1527 14.2229C35.5329 15.0657 33.0594 16.9955 30.8144 20.0415C32.6372 22.677 33.6771 25.1831 33.9927 27.6881C34.1326 28.792 33.5998 30.1819 32.5996 31.3154C31.563 32.4928 30.1831 33.225 29.0014 33.225C27.8179 33.225 26.4384 32.4928 25.4 31.3154C24.4031 30.1823 23.8702 28.7939 24.0097 27.6872C24.4186 24.441 26.0243 21.1986 28.9995 17.6726C29.0047 17.6778 29.0085 17.6829 29.0132 17.6881C29.335 17.2773 29.6624 16.8905 29.9927 16.515L31.9899 14.4763C32.1176 14.351 32.2523 14.2417 32.3824 14.123C33.0292 13.5581 33.6638 13.0681 34.2754 12.6478C38.1684 10.0938 43.0872 9.43889 49.1324 9.28812V34.1767L28.9995 49.8083L8.86668 34.1767V9.28765C13.0825 9.3946 16.7498 9.74419 19.9051 10.8104C21.9922 8.25208 24.1619 6.08859 26.3988 4.35102C19.474 0.728875 11.4453 0.711914 4.69425 0.711914H0.428992V0.791066H0.336182V38.3529L29 60.6073L57.6638 38.3529V0.791066H57.5706Z" fill="#66BFE1"/>
</svg>
