<svg width="19" height="19" viewBox="0 0 19 19" fill="none" xmlns="http://www.w3.org/2000/svg">
<g opacity="0.5">
<path d="M8.48476 12.9731C8.44126 12.9307 8.25526 12.7707 8.10226 12.6217C7.14001 11.7478 5.56501 9.46822 5.08426 8.27509C5.00701 8.09389 4.84351 7.63578 4.83301 7.39101C4.83301 7.15648 4.88701 6.9329 4.99651 6.71956C5.14951 6.4536 5.39026 6.24026 5.67451 6.12336C5.87176 6.0481 6.46201 5.9312 6.47251 5.9312C7.11826 5.8143 8.16751 5.75 9.32701 5.75C10.4318 5.75 11.4383 5.8143 12.0938 5.91001C12.1043 5.92097 12.8378 6.03787 13.089 6.16573C13.548 6.40027 13.833 6.85838 13.833 7.34864V7.39101C13.8218 7.7103 13.5368 8.38176 13.5263 8.38176C13.0448 9.51059 11.547 11.7376 10.5518 12.6326C10.5518 12.6326 10.296 12.8847 10.1363 12.9943C9.90676 13.1652 9.62251 13.25 9.33826 13.25C9.02101 13.25 8.72551 13.1543 8.48476 12.9731Z" fill="#2D3442"/>
</g>
</svg>
