<svg width="37" height="37" viewBox="0 0 37 37" fill="none" xmlns="http://www.w3.org/2000/svg">
<path fill-rule="evenodd" clip-rule="evenodd" d="M24.9108 12.6923C24.9108 16.3147 22.023 19.2193 18.4215 19.2193C14.82 19.2193 11.9322 16.3147 11.9322 12.6923C11.9322 9.06846 14.82 6.16663 18.4215 6.16663C22.023 6.16663 24.9108 9.06846 24.9108 12.6923ZM18.4215 30.8333C13.1318 30.8333 8.61505 29.9947 8.61505 26.6402C8.61505 23.2844 13.1028 22.4152 18.4215 22.4152C23.7112 22.4152 28.228 23.2538 28.228 26.6097C28.228 29.9641 23.7402 30.8333 18.4215 30.8333ZM27.6839 12.81C27.6839 14.6566 27.1331 16.3769 26.1669 17.807C26.0675 17.9542 26.1558 18.1527 26.3311 18.1833C26.5727 18.2249 26.8226 18.2485 27.0766 18.2555C29.6096 18.3221 31.8831 16.6824 32.5112 14.2137C33.4416 10.5469 30.7098 7.25488 27.2312 7.25488C26.8529 7.25488 26.4913 7.29515 26.1393 7.36735C26.0909 7.37845 26.0399 7.40067 26.0123 7.44371C25.9791 7.49647 26.004 7.56728 26.0371 7.6131C27.0821 9.08623 27.6839 10.8829 27.6839 12.81ZM31.879 20.8318C33.5811 21.1664 34.7006 21.8496 35.1644 22.8423C35.5564 23.6573 35.5564 24.6028 35.1644 25.4165C34.4549 26.9562 32.1675 27.4505 31.2785 27.5782C31.0949 27.606 30.9472 27.4463 30.9666 27.2617C31.4207 22.995 27.8082 20.9721 26.8736 20.5069C26.8336 20.4861 26.8253 20.4542 26.8295 20.4347C26.8322 20.4209 26.8488 20.3986 26.8792 20.3945C28.9015 20.357 31.0756 20.6347 31.879 20.8318ZM9.92396 18.2553C10.178 18.2484 10.4264 18.2262 10.6694 18.1831C10.8447 18.1526 10.933 17.954 10.8337 17.8069C9.86736 16.3768 9.31658 14.6565 9.31658 12.8099C9.31658 10.8827 9.91844 9.08609 10.9634 7.61296C10.9965 7.56714 11.02 7.49633 10.9883 7.44357C10.9606 7.40192 10.9082 7.37831 10.8613 7.36721C10.5079 7.29501 10.1462 7.25474 9.76797 7.25474C6.28933 7.25474 3.5575 10.5467 4.48927 14.2136C5.11736 16.6822 7.3909 18.322 9.92396 18.2553ZM10.1704 20.4339C10.1745 20.4547 10.1662 20.4853 10.1276 20.5075C9.19165 20.9726 5.57911 22.9956 6.03327 27.2608C6.05259 27.4469 5.90627 27.6052 5.72267 27.5788C4.83369 27.4511 2.54634 26.9568 1.83681 25.417C1.44339 24.602 1.44339 23.6579 1.83681 22.8428C2.30063 21.8501 3.41876 21.167 5.12081 20.831C5.92559 20.6352 8.09836 20.3575 10.122 20.395C10.1524 20.3992 10.1676 20.4214 10.1704 20.4339Z" fill="#FF7E7E"/>
</svg>
