<svg width="19" height="20" viewBox="0 0 19 20" fill="none" xmlns="http://www.w3.org/2000/svg">
<path d="M7.29172 16.2498C5.3392 16.2498 3.75 14.6606 3.75 12.7081V4.1665H2.29172C1.02753 4.1665 0 5.19388 0 6.45807V17.7081C0 18.9723 1.02753 19.9998 2.29172 19.9998H12.7083C13.9725 19.9998 15 18.9723 15 17.7081V16.2498H7.29172Z" fill="#2D3442" fill-opacity="0.7"/>
<path d="M18.3333 2.29172C18.3333 1.02585 17.3074 0 16.0417 0H7.29172C6.02585 0 5 1.02585 5 2.29172V12.7083C5 13.9742 6.02585 15 7.29172 15H16.0417C17.3074 15 18.3333 13.9742 18.3333 12.7083V2.29172Z" fill="#2D3442" fill-opacity="0.7"/>
</svg>
