<svg width="18" height="20" viewBox="0 0 18 20" fill="none" xmlns="http://www.w3.org/2000/svg">
<path fill-rule="evenodd" clip-rule="evenodd" d="M16.5965 3.80597C16.9531 3.80597 17.25 4.10205 17.25 4.4788V4.82713C17.25 5.19471 16.9531 5.49995 16.5965 5.49995H1.40437C1.04687 5.49995 0.75 5.19471 0.75 4.82713V4.4788C0.75 4.10205 1.04687 3.80597 1.40437 3.80597H4.0771C4.62003 3.80597 5.09253 3.42006 5.21466 2.87556L5.35463 2.2504C5.57216 1.39883 6.28804 0.833252 7.10733 0.833252H10.8927C11.703 0.833252 12.427 1.39883 12.6365 2.20549L12.7862 2.87465C12.9075 3.42006 13.38 3.80597 13.9238 3.80597H16.5965ZM15.2387 16.5394C15.5177 13.9389 16.0063 7.76061 16.0063 7.69828C16.0241 7.50945 15.9626 7.3307 15.8405 7.18679C15.7094 7.05204 15.5436 6.97229 15.3608 6.97229H2.64616C2.46251 6.97229 2.28778 7.05204 2.16653 7.18679C2.0435 7.3307 1.98288 7.50945 1.9918 7.69828C1.99344 7.70974 2.01097 7.92736 2.04027 8.2912C2.17047 9.90751 2.53309 14.4092 2.76741 16.5394C2.93323 18.1088 3.96292 19.0951 5.45441 19.1308C6.60534 19.1574 7.79105 19.1666 9.0035 19.1666C10.1455 19.1666 11.3054 19.1574 12.492 19.1308C14.0352 19.1042 15.064 18.1353 15.2387 16.5394Z" fill="#2D3442" fill-opacity="0.7"/>
</svg>
