<svg width="29" height="30" viewBox="0 0 29 30" fill="none" xmlns="http://www.w3.org/2000/svg">
<path fill-rule="evenodd" clip-rule="evenodd" d="M9.40219 3.15649H19.18C22.7839 3.15649 24.7905 5.275 24.7905 8.90502V21.1995C24.7905 24.889 22.7839 26.9599 19.18 26.9599H9.40219C5.85553 26.9599 3.79053 24.889 3.79053 21.1995V8.90502C3.79053 5.275 5.85553 3.15649 9.40219 3.15649ZM9.71716 8.7027V8.6908H13.2043C13.7072 8.6908 14.1155 9.10736 14.1155 9.61794C14.1155 10.1428 13.7072 10.5594 13.2043 10.5594H9.71716C9.21433 10.5594 8.80716 10.1428 8.80716 9.63103C8.80716 9.11926 9.21433 8.7027 9.71716 8.7027ZM9.71716 15.9389H18.8638C19.3655 15.9389 19.7738 15.5224 19.7738 15.0106C19.7738 14.4988 19.3655 14.0811 18.8638 14.0811H9.71716C9.21433 14.0811 8.80716 14.4988 8.80716 15.0106C8.80716 15.5224 9.21433 15.9389 9.71716 15.9389ZM9.71719 21.378H18.8639C19.3294 21.3304 19.6805 20.9246 19.6805 20.4497C19.6805 19.9617 19.3294 19.5571 18.8639 19.5095H9.71719C9.36719 19.4737 9.02885 19.6404 8.84219 19.9498C8.65552 20.2474 8.65552 20.6401 8.84219 20.9496C9.02885 21.2471 9.36719 21.4256 9.71719 21.378Z" fill="#2E3543" fill-opacity="0.3"/>
</svg>
