<svg width="12" height="8" viewBox="0 0 12 8" fill="none" xmlns="http://www.w3.org/2000/svg">
<path d="M1.93525 1.07496L1.93543 1.07475L1.92951 1.07027C1.67648 0.878757 1.31725 0.900176 1.0882 1.13382C0.837266 1.38979 0.837266 1.80399 1.0882 2.05996L5.84013 6.90719L5.83994 6.90738L5.84545 6.91224L5.90657 6.96606L5.90639 6.96627L5.91231 6.97075C6.16534 7.16226 6.52457 7.14084 6.75362 6.90719L11.5055 2.05996L11.5057 2.06015L11.5105 2.05455L11.5632 1.99221L11.5634 1.99238L11.5678 1.98643C11.7542 1.73007 11.7338 1.3667 11.5055 1.13382L11.5057 1.13363L11.5002 1.12878L11.4391 1.07496L11.4393 1.07475L11.4334 1.07027C11.1803 0.878757 10.8211 0.900176 10.5921 1.13382L6.29688 5.51533L2.00169 1.13382L2.00188 1.13364L1.99637 1.12878L1.93525 1.07496Z" fill="#2D3442" stroke="#2D3442" stroke-width="0.2"/>
</svg>
