<svg width="13" height="13" viewBox="0 0 13 13" fill="none" xmlns="http://www.w3.org/2000/svg">
<path fill-rule="evenodd" clip-rule="evenodd" d="M12.7885 1.23291C13.0705 0.950864 13.0705 0.493582 12.7885 0.211532C12.5065 -0.0705106 12.0491 -0.0705106 11.7671 0.211532L6.50001 5.47864L1.23291 0.211532C0.950864 -0.0705106 0.493582 -0.0705106 0.211532 0.211532C-0.0705106 0.493582 -0.0705106 0.950864 0.211532 1.23291L5.47864 6.50001L0.211532 11.7671C-0.0705106 12.0491 -0.0705106 12.5065 0.211532 12.7885C0.493582 13.0705 0.950864 13.0705 1.23291 12.7885L6.50001 7.52138L11.7671 12.7885C12.0491 13.0705 12.5065 13.0705 12.7885 12.7885C13.0705 12.5065 13.0705 12.0491 12.7885 11.7671L7.52138 6.50001L12.7885 1.23291Z" fill="white"/>
</svg>
