<svg width="21" height="22" viewBox="0 0 21 22" fill="none" xmlns="http://www.w3.org/2000/svg">
<path d="M10.422 0.771246C7.85329 0.768627 5.37742 1.7362 3.48565 3.48199C1.59387 5.22779 0.424419 7.62424 0.209319 10.1959C-0.00578183 12.7675 0.749185 15.3264 2.32443 17.3649C3.89968 19.4034 6.1801 20.7725 8.71325 21.2006V13.2102H6.24261V10.3352H8.71397V8.21478C8.71397 5.75506 10.2096 4.41452 12.3944 4.41452C13.1313 4.41206 13.8678 4.44973 14.6007 4.52738V7.0985H13.0885C11.9004 7.0985 11.6714 7.66569 11.6714 8.49765V10.333H14.5057L14.1363 13.208H11.6685V21.2694C14.2587 20.9529 16.6309 19.6549 18.3006 17.6405C19.9703 15.626 20.8115 13.0472 20.6524 10.4306C20.4933 7.81411 19.3459 5.35731 17.4445 3.56206C15.5431 1.76682 13.0313 0.768581 10.422 0.771246Z" fill="#076FE5"/>
</svg>
