<svg width="17" height="17" viewBox="0 0 17 17" fill="none" xmlns="http://www.w3.org/2000/svg">
<path d="M12.6204 10.5013C12.4477 10.6687 12.3684 10.9107 12.4077 11.148L13.0004 14.428C13.0504 14.706 12.9331 14.9873 12.7004 15.148C12.4724 15.3147 12.1691 15.3347 11.9204 15.2013L8.96773 13.6613C8.86506 13.6067 8.75106 13.5773 8.6344 13.574H8.45373C8.39106 13.5833 8.32973 13.6033 8.27373 13.634L5.3204 15.1813C5.1744 15.2547 5.00906 15.2807 4.84706 15.2547C4.4524 15.18 4.18906 14.804 4.25373 14.4073L4.84706 11.1273C4.8864 10.888 4.80706 10.6447 4.6344 10.4747L2.22706 8.14134C2.02573 7.946 1.95573 7.65267 2.04773 7.388C2.13706 7.124 2.36506 6.93134 2.6404 6.888L5.95373 6.40734C6.20573 6.38134 6.42706 6.228 6.5404 6.00134L8.0004 3.008C8.03506 2.94134 8.07973 2.88 8.13373 2.828L8.19373 2.78134C8.22506 2.74667 8.26106 2.718 8.30106 2.69467L8.37373 2.668L8.48706 2.62134H8.76773C9.0184 2.64734 9.23906 2.79734 9.3544 3.02134L10.8337 6.00134C10.9404 6.21934 11.1477 6.37067 11.3871 6.40734L14.7004 6.888C14.9804 6.928 15.2144 7.12134 15.3071 7.388C15.3944 7.65534 15.3191 7.94867 15.1137 8.14134L12.6204 10.5013Z" fill="#DFDFDF"/>
</svg>
