<svg width="17" height="16" viewBox="0 0 17 16" fill="none" xmlns="http://www.w3.org/2000/svg">
<path d="M12.5257 9.54675C12.353 9.71408 12.2737 9.95608 12.313 10.1934L12.9057 13.4734C12.9557 13.7514 12.8383 14.0327 12.6057 14.1934C12.3777 14.3601 12.0743 14.3801 11.8257 14.2467L8.873 12.7067C8.77034 12.6521 8.65634 12.6227 8.53967 12.6194H8.359C8.29634 12.6287 8.235 12.6487 8.179 12.6794L5.22567 14.2267C5.07967 14.3001 4.91434 14.3261 4.75234 14.3001C4.35767 14.2254 4.09434 13.8494 4.159 13.4527L4.75234 10.1727C4.79167 9.93341 4.71234 9.69008 4.53967 9.52008L2.13234 7.18675C1.931 6.99141 1.861 6.69808 1.953 6.43341C2.04234 6.16941 2.27034 5.97675 2.54567 5.93341L5.859 5.45275C6.111 5.42675 6.33234 5.27341 6.44567 5.04675L7.90567 2.05341C7.94034 1.98675 7.985 1.92541 8.039 1.87341L8.099 1.82675C8.13034 1.79208 8.16634 1.76341 8.20634 1.74008L8.279 1.71341L8.39234 1.66675H8.673C8.92367 1.69275 9.14434 1.84275 9.25967 2.06675L10.739 5.04675C10.8457 5.26475 11.053 5.41608 11.2923 5.45275L14.6057 5.93341C14.8857 5.97341 15.1197 6.16675 15.2123 6.43341C15.2997 6.70075 15.2243 6.99408 15.019 7.18675L12.5257 9.54675Z" fill="#FF842C"/>
</svg>
