<svg width="34" height="35" viewBox="0 0 34 35" fill="none" xmlns="http://www.w3.org/2000/svg">
<path fill-rule="evenodd" clip-rule="evenodd" d="M19.0541 7.117H23.4033C28.6308 7.117 31.1808 9.98991 31.1666 15.8816V22.9837C31.1666 28.6128 27.7949 32.0837 22.3124 32.0837H11.6733C6.21908 32.0837 2.83325 28.6128 2.83325 22.9691V12.017C2.83325 5.9795 5.43992 2.917 10.5824 2.917H12.8208C14.1397 2.90241 15.3708 3.5295 16.1783 4.59408L17.4249 6.30033C17.8216 6.81075 18.4166 7.117 19.0541 7.117ZM10.4408 22.2982H23.5591C24.1399 22.2982 24.6074 21.8024 24.6074 21.2045C24.6074 20.592 24.1399 20.1107 23.5591 20.1107H10.4408C9.84575 20.1107 9.37825 20.592 9.37825 21.2045C9.37825 21.8024 9.84575 22.2982 10.4408 22.2982Z" fill="#4495F8"/>
</svg>
