<svg width="68" height="17" viewBox="0 0 68 17" fill="none" xmlns="http://www.w3.org/2000/svg">
<path d="M7.08703 2.5345C7.40919 1.66389 8.64057 1.66389 8.96273 2.53451L10.0328 5.42619C10.134 5.69991 10.3498 5.91572 10.6236 6.01701L13.5153 7.08703C14.3859 7.40919 14.3859 8.64057 13.5153 8.96273L10.6236 10.0328C10.3498 10.134 10.134 10.3498 10.0328 10.6236L8.96273 13.5153C8.64057 14.3859 7.40919 14.3859 7.08703 13.5153L6.01701 10.6236C5.91572 10.3498 5.69991 10.134 5.42619 10.0328L2.5345 8.96273C1.66389 8.64057 1.66389 7.40919 2.53451 7.08703L5.42619 6.01701C5.69991 5.91572 5.91572 5.69991 6.01701 5.42619L7.08703 2.5345Z" fill="#FBFBFF"/>
<path opacity="0.5" d="M33.0621 2.5345C33.3843 1.66389 34.6157 1.66389 34.9378 2.53451L36.0078 5.42619C36.1091 5.69991 36.3249 5.91572 36.5987 6.01701L39.4904 7.08703C40.361 7.40919 40.361 8.64057 39.4904 8.96273L36.5987 10.0328C36.3249 10.134 36.1091 10.3498 36.0078 10.6236L34.9378 13.5153C34.6157 14.3859 33.3843 14.3859 33.0621 13.5153L31.9921 10.6236C31.8908 10.3498 31.675 10.134 31.4013 10.0328L28.5096 8.96273C27.639 8.64057 27.639 7.40919 28.5096 7.08703L31.4013 6.01701C31.675 5.91572 31.8908 5.69991 31.9921 5.42619L33.0621 2.5345Z" fill="white"/>
<path opacity="0.5" d="M59.0372 2.5345C59.3594 1.66389 60.5908 1.66389 60.9129 2.53451L61.9829 5.42619C62.0842 5.69991 62.3 5.91572 62.5738 6.01701L65.4654 7.08703C66.3361 7.40919 66.3361 8.64057 65.4654 8.96273L62.5738 10.0328C62.3 10.134 62.0842 10.3498 61.9829 10.6236L60.9129 13.5153C60.5908 14.3859 59.3594 14.3859 59.0372 13.5153L57.9672 10.6236C57.8659 10.3498 57.6501 10.134 57.3764 10.0328L54.4847 8.96273C53.6141 8.64057 53.6141 7.40919 54.4847 7.08703L57.3764 6.01701C57.6501 5.91572 57.8659 5.69991 57.9672 5.42619L59.0372 2.5345Z" fill="white"/>
</svg>
