<svg width="38" height="38" viewBox="0 0 38 38" fill="none" xmlns="http://www.w3.org/2000/svg">
<circle cx="19" cy="19" r="19" fill="white" fill-opacity="0.1"/>
<path fill-rule="evenodd" clip-rule="evenodd" d="M19.849 13.7034H22.3413C25.3369 13.7034 26.7982 15.3027 26.79 18.5824V22.536C26.79 25.6696 24.8579 27.6017 21.7162 27.6017H15.6194C12.494 27.6017 10.5537 25.6696 10.5537 22.5278V16.4311C10.5537 13.0702 12.0475 11.3654 14.9943 11.3654H16.277C17.0328 11.3573 17.7383 11.7063 18.201 12.299L18.9154 13.2488C19.1427 13.5329 19.4837 13.7034 19.849 13.7034ZM14.9132 22.1544H22.4306C22.7634 22.1544 23.0313 21.8784 23.0313 21.5455C23.0313 21.2046 22.7634 20.9367 22.4306 20.9367H14.9132C14.5722 20.9367 14.3043 21.2046 14.3043 21.5455C14.3043 21.8784 14.5722 22.1544 14.9132 22.1544Z" fill="#8E9DCC"/>
</svg>
