<svg width="20" height="19" viewBox="0 0 20 19" fill="none" xmlns="http://www.w3.org/2000/svg">
<path d="M7.44739 0.000156696C8.33182 -0.00918102 9.15736 0.399312 9.69885 1.0928L10.5348 2.20428C10.8008 2.53678 11.1998 2.73627 11.6273 2.73627H14.5438C18.0492 2.73627 19.7592 4.60774 19.7497 8.44568V13.0721C19.7497 16.739 17.4887 19 13.8123 19H6.6779C3.02046 19 0.75 16.739 0.75 13.0626V5.92822C0.75 1.99529 2.49797 0.000156696 5.94641 0.000156696H7.44739ZM14.6483 11.2006H5.85141C5.45242 11.2006 5.13893 11.5141 5.13893 11.9131C5.13893 12.3026 5.45242 12.6256 5.85141 12.6256H14.6483C15.0378 12.6256 15.3513 12.3026 15.3513 11.9131C15.3513 11.5141 15.0378 11.2006 14.6483 11.2006Z" fill="#2D3442"/>
</svg>
