<svg width="29" height="30" viewBox="0 0 29 30" fill="none" xmlns="http://www.w3.org/2000/svg">
<path fill-rule="evenodd" clip-rule="evenodd" d="M16.4545 6.58439H20.0362C24.3412 6.58439 26.4412 8.92903 26.4295 13.7373V19.5335C26.4295 24.1275 23.6529 26.9601 19.1379 26.9601H10.3762C5.88452 26.9601 3.09619 24.1275 3.09619 19.5216V10.5834C3.09619 5.65606 5.24286 3.1567 9.47786 3.1567H11.3212C12.4074 3.1448 13.4212 3.65657 14.0862 4.52539L15.1129 5.9179C15.4395 6.33446 15.9295 6.58439 16.4545 6.58439ZM9.36121 18.9741H20.1645C20.6429 18.9741 21.0279 18.5694 21.0279 18.0814C21.0279 17.5816 20.6429 17.1888 20.1645 17.1888H9.36121C8.87121 17.1888 8.48621 17.5816 8.48621 18.0814C8.48621 18.5694 8.87121 18.9741 9.36121 18.9741Z" fill="#2E3543" fill-opacity="0.3"/>
</svg>
