<svg width="20" height="19" viewBox="0 0 20 19" fill="none" xmlns="http://www.w3.org/2000/svg">
<g clip-path="url(#clip0_1_526)">
<path d="M18.5983 7.94274L11.0369 7.94238C10.703 7.94238 10.4324 8.21299 10.4324 8.54689V10.9624C10.4324 11.2962 10.703 11.5669 11.0369 11.5669H15.295C14.8287 12.777 13.9585 13.7903 12.8481 14.4342L14.6638 17.5773C17.5763 15.8929 19.2982 12.9374 19.2982 9.62888C19.2982 9.1578 19.2635 8.82104 19.1941 8.44185C19.1413 8.15376 18.8912 7.94274 18.5983 7.94274Z" fill="#167EE6"/>
<path d="M10.0291 15.1962C7.94524 15.1962 6.12608 14.0576 5.14905 12.3728L2.0061 14.1844C3.60553 16.9564 6.60176 18.8231 10.0291 18.8231C11.7104 18.8231 13.2968 18.3704 14.6635 17.5815V17.5772L12.8479 14.4341C12.0173 14.9158 11.0563 15.1962 10.0291 15.1962Z" fill="#12B347"/>
<path d="M14.6635 17.5815V17.5772L12.8478 14.4341C12.0173 14.9157 11.0563 15.1961 10.0291 15.1961V18.8231C11.7104 18.8231 13.2969 18.3704 14.6635 17.5815Z" fill="#0F993E"/>
<path d="M4.3872 9.55419C4.3872 8.52705 4.66752 7.56609 5.1491 6.73563L2.00616 4.92407C1.21291 6.28641 0.760254 7.86856 0.760254 9.55419C0.760254 11.2398 1.21291 12.822 2.00616 14.1843L5.1491 12.3728C4.66752 11.5423 4.3872 10.5813 4.3872 9.55419Z" fill="#FFD500"/>
<path d="M10.0291 3.91235C11.3879 3.91235 12.6361 4.3952 13.611 5.19837C13.8516 5.39649 14.2011 5.38219 14.4215 5.16187L16.1329 3.45039C16.3829 3.20042 16.3651 2.79125 16.0981 2.5596C14.4646 1.14252 12.3393 0.2854 10.0291 0.2854C6.60176 0.2854 3.60553 2.1521 2.0061 4.92414L5.14904 6.7357C6.12608 5.0509 7.94524 3.91235 10.0291 3.91235Z" fill="#FF4B26"/>
<path d="M13.611 5.19837C13.8516 5.39649 14.2012 5.38219 14.4215 5.16187L16.1329 3.45039C16.3829 3.20042 16.3651 2.79125 16.0981 2.5596C14.4646 1.14248 12.3393 0.2854 10.0291 0.2854V3.91235C11.3879 3.91235 12.6361 4.3952 13.611 5.19837Z" fill="#D93F21"/>
</g>
<defs>
<clipPath id="clip0_1_526">
<rect width="18.5377" height="18.5377" fill="white" transform="translate(0.760254 0.2854)"/>
</clipPath>
</defs>
</svg>
