<svg width="34" height="31" viewBox="0 0 34 31" fill="none" xmlns="http://www.w3.org/2000/svg">
<rect opacity="0.1" width="33.3058" height="30.1832" rx="5" fill="#66BFE1"/>
<path d="M13.7727 7H11.0455C9.91534 7 9 7.91534 9 9.04545V11.7727C9 12.9028 9.91534 13.8182 11.0455 13.8182H13.7727C14.9028 13.8182 15.8182 12.9028 15.8182 11.7727V9.04545C15.8182 7.91534 14.9028 7 13.7727 7ZM14.4545 11.7727C14.4545 12.1494 14.1494 12.4545 13.7727 12.4545H11.0455C10.6688 12.4545 10.3636 12.1494 10.3636 11.7727V9.04545C10.3636 8.66875 10.6688 8.36364 11.0455 8.36364H13.7727C14.1494 8.36364 14.4545 8.66875 14.4545 9.04545V11.7727ZM21.9545 7H19.2273C18.0972 7 17.1818 7.91534 17.1818 9.04545V11.7727C17.1818 12.9028 18.0972 13.8182 19.2273 13.8182H21.9545C23.0847 13.8182 24 12.9028 24 11.7727V9.04545C24 7.91534 23.0847 7 21.9545 7ZM22.6364 11.7727C22.6364 12.1494 22.3313 12.4545 21.9545 12.4545H19.2273C18.8506 12.4545 18.5455 12.1494 18.5455 11.7727V9.04545C18.5455 8.66875 18.8506 8.36364 19.2273 8.36364H21.9545C22.3313 8.36364 22.6364 8.66875 22.6364 9.04545V11.7727ZM21.9545 15.1818H19.2273C18.0972 15.1818 17.1818 16.0972 17.1818 17.2273V19.9545C17.1818 21.0847 18.0972 22 19.2273 22H21.9545C23.0847 22 24 21.0847 24 19.9545V17.2273C24 16.0972 23.0847 15.1818 21.9545 15.1818ZM22.6364 19.9545C22.6364 20.3313 22.3313 20.6364 21.9545 20.6364H19.2273C18.8506 20.6364 18.5455 20.3313 18.5455 19.9545V17.2273C18.5455 16.8506 18.8506 16.5455 19.2273 16.5455H21.9545C22.3313 16.5455 22.6364 16.8506 22.6364 17.2273V19.9545ZM13.7727 15.1818H11.0455C9.91534 15.1818 9 16.0972 9 17.2273V19.9545C9 21.0847 9.91534 22 11.0455 22H13.7727C14.9028 22 15.8182 21.0847 15.8182 19.9545V17.2273C15.8182 16.0972 14.9028 15.1818 13.7727 15.1818ZM14.4545 19.9545C14.4545 20.3313 14.1494 20.6364 13.7727 20.6364H11.0455C10.6688 20.6364 10.3636 20.3313 10.3636 19.9545V17.2273C10.3636 16.8506 10.6688 16.5455 11.0455 16.5455H13.7727C14.1494 16.5455 14.4545 16.8506 14.4545 17.2273V19.9545Z" fill="#2D3442"/>
</svg>
