<svg width="29" height="30" viewBox="0 0 29 30" fill="none" xmlns="http://www.w3.org/2000/svg">
<path d="M11.3656 25.5V21.8608C11.3656 20.9318 12.1092 20.1787 13.0265 20.1787H16.3797C16.8202 20.1787 17.2427 20.3559 17.5542 20.6714C17.8657 20.9868 18.0406 21.4147 18.0406 21.8608V25.5C18.0379 25.8862 18.1874 26.2576 18.4561 26.5317C18.7248 26.8058 19.0904 26.9599 19.4718 26.9599H21.7595C22.8279 26.9627 23.8535 26.5348 24.61 25.7707C25.3665 25.0066 25.7917 23.969 25.7917 22.8869V12.5194C25.7916 11.6453 25.4091 10.8163 24.7471 10.2555L16.9647 3.96089C15.6109 2.85724 13.6713 2.89287 12.358 4.04553L4.75318 10.2555C4.05986 10.7997 3.64548 11.6313 3.625 12.5194V22.8764C3.625 25.1316 5.43028 26.9599 7.6572 26.9599H9.89267C10.6848 26.9599 11.3285 26.3127 11.3342 25.5106L11.3656 25.5Z" fill="#C1C3C7"/>
</svg>
