<svg width="34" height="31" viewBox="0 0 34 31" fill="none" xmlns="http://www.w3.org/2000/svg">
<rect width="33.3058" height="30.1832" rx="5" fill="#66BFE1"/>
<path d="M13.2308 8C12.5918 8 11.9671 8.18948 11.4359 8.54448C10.9046 8.89948 10.4905 9.40406 10.2459 9.99441C10.0014 10.5848 9.93742 11.2344 10.0621 11.8611C10.1867 12.4878 10.4944 13.0634 10.9463 13.5153C11.3981 13.9671 11.9738 14.2748 12.6005 14.3995C13.2272 14.5241 13.8768 14.4601 14.4671 14.2156C15.0575 13.9711 15.5621 13.557 15.9171 13.0257C16.2721 12.4944 16.4615 11.8698 16.4615 11.2308C16.4615 10.3739 16.1212 9.55216 15.5153 8.94627C14.9094 8.34038 14.0876 8 13.2308 8V8ZM13.2308 13.3846C12.8048 13.3846 12.3884 13.2583 12.0342 13.0216C11.68 12.785 11.4039 12.4486 11.2409 12.055C11.0779 11.6614 11.0352 11.2284 11.1183 10.8106C11.2014 10.3928 11.4066 10.009 11.7078 9.70777C12.009 9.40655 12.3928 9.20142 12.8106 9.11831C13.2284 9.0352 13.6614 9.07786 14.055 9.24087C14.4486 9.40389 14.785 9.67996 15.0216 10.0342C15.2583 10.3884 15.3846 10.8048 15.3846 11.2308C15.3846 11.802 15.1577 12.3498 14.7538 12.7538C14.3498 13.1577 13.802 13.3846 13.2308 13.3846ZM17.5385 11.2308H23.4615C23.6043 11.2308 23.7413 11.174 23.8423 11.0731C23.9433 10.9721 24 10.8351 24 10.6923C24 10.5495 23.9433 10.4125 23.8423 10.3116C23.7413 10.2106 23.6043 10.1538 23.4615 10.1538H17.5385C17.3957 10.1538 17.2587 10.2106 17.1577 10.3116C17.0567 10.4125 17 10.5495 17 10.6923C17 10.8351 17.0567 10.9721 17.1577 11.0731C17.2587 11.174 17.3957 11.2308 17.5385 11.2308ZM17.5385 13.3846H20.7692C20.912 13.3846 21.049 13.3279 21.15 13.2269C21.251 13.1259 21.3077 12.989 21.3077 12.8462C21.3077 12.7033 21.251 12.5664 21.15 12.4654C21.049 12.3644 20.912 12.3077 20.7692 12.3077H17.5385C17.3957 12.3077 17.2587 12.3644 17.1577 12.4654C17.0567 12.5664 17 12.7033 17 12.8462C17 12.989 17.0567 13.1259 17.1577 13.2269C17.2587 13.3279 17.3957 13.3846 17.5385 13.3846ZM13.2308 15.5385C12.5918 15.5385 11.9671 15.7279 11.4359 16.0829C10.9046 16.4379 10.4905 16.9425 10.2459 17.5329C10.0014 18.1232 9.93742 18.7728 10.0621 19.3995C10.1867 20.0262 10.4944 20.6019 10.9463 21.0537C11.3981 21.5056 11.9738 21.8133 12.6005 21.9379C13.2272 22.0626 13.8768 21.9986 14.4671 21.7541C15.0575 21.5095 15.5621 21.0954 15.9171 20.5641C16.2721 20.0329 16.4615 19.4082 16.4615 18.7692C16.4615 17.9124 16.1212 17.0906 15.5153 16.4847C14.9094 15.8788 14.0876 15.5385 13.2308 15.5385ZM13.2308 20.9231C12.8048 20.9231 12.3884 20.7968 12.0342 20.5601C11.68 20.3234 11.4039 19.987 11.2409 19.5935C11.0779 19.1999 11.0352 18.7668 11.1183 18.349C11.2014 17.9312 11.4066 17.5475 11.7078 17.2462C12.009 16.945 12.3928 16.7399 12.8106 16.6568C13.2284 16.5737 13.6614 16.6163 14.055 16.7793C14.4486 16.9424 14.785 17.2184 15.0216 17.5726C15.2583 17.9268 15.3846 18.3432 15.3846 18.7692C15.3846 19.3405 15.1577 19.8883 14.7538 20.2922C14.3498 20.6962 13.802 20.9231 13.2308 20.9231ZM23.4615 17.6923H17.5385C17.3957 17.6923 17.2587 17.749 17.1577 17.85C17.0567 17.951 17 18.088 17 18.2308C17 18.3736 17.0567 18.5105 17.1577 18.6115C17.2587 18.7125 17.3957 18.7692 17.5385 18.7692H23.4615C23.6043 18.7692 23.7413 18.7125 23.8423 18.6115C23.9433 18.5105 24 18.3736 24 18.2308C24 18.088 23.9433 17.951 23.8423 17.85C23.7413 17.749 23.6043 17.6923 23.4615 17.6923ZM20.7692 19.8462H17.5385C17.3957 19.8462 17.2587 19.9029 17.1577 20.0039C17.0567 20.1048 17 20.2418 17 20.3846C17 20.5274 17.0567 20.6644 17.1577 20.7654C17.2587 20.8663 17.3957 20.9231 17.5385 20.9231H20.7692C20.912 20.9231 21.049 20.8663 21.15 20.7654C21.251 20.6644 21.3077 20.5274 21.3077 20.3846C21.3077 20.2418 21.251 20.1048 21.15 20.0039C21.049 19.9029 20.912 19.8462 20.7692 19.8462Z" fill="white"/>
</svg>
