<svg width="18" height="20" viewBox="0 0 18 20" fill="none" xmlns="http://www.w3.org/2000/svg">
<path fill-rule="evenodd" clip-rule="evenodd" d="M14.9749 5.39601V6.92935C16.6972 7.46696 17.9521 9.02614 17.9521 10.8884V15.8253C17.9521 18.1308 16.0408 20 13.6844 20H5.22095C2.86351 20 0.952148 18.1308 0.952148 15.8253V10.8884C0.952148 9.02614 2.2081 7.46696 3.92943 6.92935V5.39601C3.9396 2.41479 6.40881 0 9.43691 0C12.5056 0 14.9749 2.41479 14.9749 5.39601ZM9.45723 1.73904C11.52 1.73904 13.1966 3.37871 13.1966 5.39601V6.7137H5.70768V5.37613C5.71784 3.36878 7.39447 1.73904 9.45723 1.73904ZM10.3413 14.4549C10.3413 14.9419 9.94498 15.3294 9.44707 15.3294C8.95932 15.3294 8.56303 14.9419 8.56303 14.4549V12.2488C8.56303 11.7718 8.95932 11.3843 9.44707 11.3843C9.94498 11.3843 10.3413 11.7718 10.3413 12.2488V14.4549Z" fill="#66BFE1"/>
</svg>
