<svg width="34" height="32" viewBox="0 0 34 32" fill="none" xmlns="http://www.w3.org/2000/svg">
<path d="M0.933594 16.0646C0.933594 7.57801 7.81335 0.698242 16.3 0.698242H18.4416C26.9282 0.698242 33.808 7.57801 33.808 16.0646C33.808 24.5512 26.9283 31.431 18.4416 31.431H16.3C7.81336 31.431 0.933594 24.5512 0.933594 16.0646Z" fill="#50AED2" fill-opacity="0.06"/>
<path fill-rule="evenodd" clip-rule="evenodd" d="M16.1986 15.871C15.8789 15.871 15.6262 16.114 15.6262 16.4213C15.6262 16.7215 15.8789 16.9717 16.1986 16.9717H20.6583V20.388C20.6583 22.139 19.1791 23.5685 17.3506 23.5685H13.7308C11.9098 23.5685 10.4307 22.1462 10.4307 20.3951V12.4547C10.4307 10.6965 11.9172 9.27417 13.7383 9.27417H17.3655C19.1791 9.27417 20.6583 10.6965 20.6583 12.4475V15.871H16.1986ZM23.3103 13.9486L25.4435 16.0284C25.553 16.1356 25.6115 16.2714 25.6115 16.4215C25.6115 16.5644 25.553 16.7074 25.4435 16.8074L23.3103 18.8872C23.2007 18.9944 23.0546 19.0516 22.9158 19.0516C22.7697 19.0516 22.6236 18.9944 22.514 18.8872C22.2948 18.6728 22.2948 18.3226 22.514 18.1082L23.6829 16.9718H20.6584V15.8711H23.6829L22.514 14.7347C22.2948 14.5203 22.2948 14.1701 22.514 13.9557C22.7331 13.7341 23.0911 13.7341 23.3103 13.9486Z" fill="#50AED2"/>
</svg>
