<svg width="20" height="20" viewBox="0 0 20 20" fill="none" xmlns="http://www.w3.org/2000/svg">
<path fill-rule="evenodd" clip-rule="evenodd" d="M8.07066 9.29409C7.66961 9.29409 7.35251 9.60575 7.35251 9.99992C7.35251 10.3849 7.66961 10.7058 8.07066 10.7058H13.6666V15.0874C13.6666 17.3333 11.8106 19.1666 9.51627 19.1666H4.97424C2.68924 19.1666 0.833252 17.3424 0.833252 15.0966V4.91242C0.833252 2.65742 2.69856 0.833252 4.98357 0.833252H9.53492C11.8106 0.833252 13.6666 2.65742 13.6666 4.90325V9.29409H8.07066ZM16.9943 6.82844L19.671 9.49594C19.8085 9.63344 19.8818 9.8076 19.8818 10.0001C19.8818 10.1834 19.8085 10.3668 19.671 10.4951L16.9943 13.1626C16.8568 13.3001 16.6735 13.3734 16.4993 13.3734C16.316 13.3734 16.1327 13.3001 15.9952 13.1626C15.7202 12.8876 15.7202 12.4384 15.9952 12.1634L17.4618 10.7059H13.6668V9.29427H17.4618L15.9952 7.83677C15.7202 7.56177 15.7202 7.1126 15.9952 6.8376C16.2702 6.55344 16.7193 6.55344 16.9943 6.82844Z" fill="#2D3442" fill-opacity="0.7"/>
</svg>
