<svg width="21" height="19" viewBox="0 0 21 19" fill="none" xmlns="http://www.w3.org/2000/svg">
<path fill-rule="evenodd" clip-rule="evenodd" d="M15.3916 0.931641C16.7326 0.931641 18.0226 1.46164 18.9716 2.41264C19.9216 3.36164 20.4526 4.64164 20.4526 5.98164V13.8816C20.4526 16.6716 18.1826 18.9316 15.3916 18.9316H5.51264C2.72164 18.9316 0.452637 16.6716 0.452637 13.8816V5.98164C0.452637 3.19164 2.71164 0.931641 5.51264 0.931641H15.3916ZM16.9826 7.47164L17.0626 7.39164C17.3016 7.10164 17.3016 6.68164 17.0516 6.39164C16.9126 6.24264 16.7216 6.15164 16.5226 6.13164C16.3126 6.12064 16.1126 6.19164 15.9616 6.33164L11.4526 9.93164C10.8726 10.4126 10.0416 10.4126 9.45264 9.93164L4.95264 6.33164C4.64164 6.10164 4.21164 6.13164 3.95264 6.40164C3.68264 6.67164 3.65264 7.10164 3.88164 7.40164L4.01264 7.53164L8.56264 11.0816C9.12264 11.5216 9.80164 11.7616 10.5126 11.7616C11.2216 11.7616 11.9126 11.5216 12.4716 11.0816L16.9826 7.47164Z" fill="#66BFE1"/>
</svg>
