<svg width="13" height="20" viewBox="0 0 13 20" fill="none" xmlns="http://www.w3.org/2000/svg">
<path fill-rule="evenodd" clip-rule="evenodd" d="M6.33301 0.964447C7.98986 0.964447 9.33301 2.30759 9.33301 3.96445V10.9644C9.33301 12.6213 7.98986 13.9644 6.33301 13.9644C4.67615 13.9644 3.33301 12.6213 3.33301 10.9644V3.96445C3.33301 2.30759 4.67615 0.964447 6.33301 0.964447ZM11.583 7.46445C11.1688 7.46445 10.833 7.80023 10.833 8.21445V10.9644C10.833 13.4497 8.81829 15.4644 6.33301 15.4644C3.84773 15.4644 1.83301 13.4497 1.83301 10.9644V8.21445C1.83301 7.80023 1.49722 7.46445 1.08301 7.46445C0.668794 7.46445 0.333008 7.80023 0.333008 8.21445V10.9644C0.334489 13.987 2.58412 16.5366 5.58301 16.9144V18.4644H3.58301C3.16879 18.4644 2.83301 18.8002 2.83301 19.2144C2.83301 19.6287 3.16879 19.9644 3.58301 19.9644H9.08301C9.49722 19.9644 9.83301 19.6287 9.83301 19.2144C9.83301 18.8002 9.49722 18.4644 9.08301 18.4644H7.08301V16.9144C10.0819 16.5366 12.3315 13.987 12.333 10.9644V8.21445C12.333 7.80023 11.9972 7.46445 11.583 7.46445Z" fill="#2D3442" fill-opacity="0.4"/>
</svg>
