<svg width="13" height="20" viewBox="0 0 13 20" fill="none" xmlns="http://www.w3.org/2000/svg">
<path fill-rule="evenodd" clip-rule="evenodd" d="M6.45898 0.896484C8.11584 0.896484 9.45898 2.23963 9.45898 3.89648V10.8965C9.45898 12.5533 8.11584 13.8965 6.45898 13.8965C4.80213 13.8965 3.45898 12.5533 3.45898 10.8965V3.89648C3.45898 2.23963 4.80213 0.896484 6.45898 0.896484ZM11.709 7.39648C11.2948 7.39648 10.959 7.73227 10.959 8.14648V10.8965C10.959 13.3818 8.94427 15.3965 6.45898 15.3965C3.9737 15.3965 1.95898 13.3818 1.95898 10.8965V8.14648C1.95898 7.73227 1.6232 7.39648 1.20898 7.39648C0.794771 7.39648 0.458984 7.73227 0.458984 8.14648V10.8965C0.460466 13.9191 2.7101 16.4687 5.70898 16.8465V18.3965H3.70898C3.29477 18.3965 2.95898 18.7323 2.95898 19.1465C2.95898 19.5607 3.29477 19.8965 3.70898 19.8965H9.20898C9.6232 19.8965 9.95898 19.5607 9.95898 19.1465C9.95898 18.7323 9.6232 18.3965 9.20898 18.3965H7.20898V16.8465C10.2079 16.4687 12.4575 13.9191 12.459 10.8965V8.14648C12.459 7.73227 12.1232 7.39648 11.709 7.39648Z" fill="white" fill-opacity="0.6"/>
</svg>
