<svg width="45" height="45" viewBox="0 0 45 45" fill="none" xmlns="http://www.w3.org/2000/svg">
<path fill-rule="evenodd" clip-rule="evenodd" d="M22.5 37.4856C30.7843 37.4856 37.5 30.7699 37.5 22.4856C37.5 14.2013 30.7843 7.4856 22.5 7.4856C14.2157 7.4856 7.5 14.2013 7.5 22.4856C7.5 30.7699 14.2157 37.4856 22.5 37.4856Z" fill="#767680" fill-opacity="0.12"/>
<path fill-rule="evenodd" clip-rule="evenodd" d="M27.8373 17.9486C28.0542 17.7317 28.0542 17.3799 27.8373 17.163C27.6203 16.946 27.2686 16.946 27.0516 17.163L23 21.2146L18.9484 17.163C18.7314 16.946 18.3797 16.946 18.1627 17.163C17.9458 17.3799 17.9458 17.7317 18.1627 17.9486L22.2143 22.0003L18.1627 26.0519C17.9458 26.2688 17.9458 26.6206 18.1627 26.8375C18.3797 27.0545 18.7314 27.0545 18.9484 26.8375L23 22.7859L27.0516 26.8375C27.2686 27.0545 27.6203 27.0545 27.8373 26.8375C28.0542 26.6206 28.0542 26.2688 27.8373 26.0519L23.7857 22.0003L27.8373 17.9486Z" fill="#2D3442"/>
</svg>
