<svg width="32" height="32" viewBox="0 0 32 32" fill="none" xmlns="http://www.w3.org/2000/svg">
<circle cx="16" cy="16" r="16" fill="white" fill-opacity="0.1"/>
<path fill-rule="evenodd" clip-rule="evenodd" d="M13.5427 8.88721H19.2722C21.384 8.88721 22.5598 10.1041 22.5598 12.1892V19.2511C22.5598 21.3704 21.384 22.5599 19.2722 22.5599H13.5427C11.4644 22.5599 10.2544 21.3704 10.2544 19.2511V12.1892C10.2544 10.1041 11.4644 8.88721 13.5427 8.88721ZM13.7273 12.0729V12.0661H15.7706C16.0653 12.0661 16.3046 12.3054 16.3046 12.5987C16.3046 12.9001 16.0653 13.1394 15.7706 13.1394H13.7273C13.4326 13.1394 13.194 12.9001 13.194 12.6062C13.194 12.3122 13.4326 12.0729 13.7273 12.0729ZM13.7273 16.2294H19.087C19.3809 16.2294 19.6202 15.9902 19.6202 15.6962C19.6202 15.4022 19.3809 15.1623 19.087 15.1623H13.7273C13.4326 15.1623 13.194 15.4022 13.194 15.6962C13.194 15.9902 13.4326 16.2294 13.7273 16.2294ZM13.7273 19.3537H19.087C19.3597 19.3263 19.5655 19.0932 19.5655 18.8204C19.5655 18.5401 19.3597 18.3077 19.087 18.2803H13.7273C13.5222 18.2598 13.3239 18.3555 13.2145 18.5333C13.1052 18.7042 13.1052 18.9298 13.2145 19.1075C13.3239 19.2785 13.5222 19.381 13.7273 19.3537Z" fill="#8E9DCC"/>
</svg>
