<svg width="36" height="36" viewBox="0 0 36 36" fill="none" xmlns="http://www.w3.org/2000/svg">
<circle cx="17.8343" cy="18.1497" r="17.4984" fill="white" fill-opacity="0.07"/>
<path fill-rule="evenodd" clip-rule="evenodd" d="M22.8643 15.7471C22.8643 16.6891 23.1133 17.2443 23.6611 17.8841C24.0763 18.3554 24.209 18.9605 24.209 19.6169C24.209 20.2726 23.9936 20.895 23.562 21.4003C22.997 22.0062 22.2001 22.3929 21.3869 22.4601C20.2084 22.5606 19.0292 22.6452 17.8344 22.6452C16.6387 22.6452 15.4603 22.5946 14.2818 22.4601C13.4678 22.3929 12.671 22.0062 12.1067 21.4003C11.6751 20.895 11.459 20.2726 11.459 19.6169C11.459 18.9605 11.5924 18.3554 12.0069 17.8841C12.5719 17.2443 12.8044 16.6891 12.8044 15.7471V15.4276C12.8044 14.1662 13.119 13.3413 13.7667 12.5338C14.7298 11.3562 16.2735 10.6499 17.8008 10.6499H17.8679C19.428 10.6499 21.0217 11.3902 21.9683 12.6184C22.5825 13.4093 22.8643 14.1994 22.8643 15.4276V15.7471ZM15.6393 24.1955C15.6393 23.8178 15.9859 23.6449 16.3065 23.5708C16.6814 23.4915 18.966 23.4915 19.341 23.5708C19.6615 23.6449 20.0081 23.8178 20.0081 24.1955C19.9895 24.5551 19.7785 24.8739 19.4871 25.0763C19.1092 25.3709 18.6656 25.5575 18.202 25.6247C17.9456 25.6579 17.6936 25.6587 17.4462 25.6247C16.9818 25.5575 16.5383 25.3709 16.1611 25.0755C15.8689 24.8739 15.658 24.5551 15.6393 24.1955Z" fill="white"/>
<circle cx="22.1996" cy="12.2738" r="2.62392" fill="#E95E41" stroke="#3C424F"/>
</svg>
