<svg width="20" height="21" viewBox="0 0 20 21" fill="none" xmlns="http://www.w3.org/2000/svg">
<g opacity="0.3">
<path fill-rule="evenodd" clip-rule="evenodd" d="M6.74791 10.0844C6.74791 11.8622 8.2032 13.3086 9.99994 13.3086C11.7886 13.3086 13.2438 11.8622 13.2438 10.0844C13.2438 8.29853 11.7886 6.85207 9.99994 6.85207C8.2032 6.85207 6.74791 8.29853 6.74791 10.0844ZM14.7804 5.12277C16.2032 6.22176 17.4146 7.82984 18.2845 9.84197C18.3496 9.9955 18.3496 10.1733 18.2845 10.3187C16.5447 14.343 13.4471 16.7511 9.99996 16.7511H9.99183C6.5528 16.7511 3.45524 14.343 1.71541 10.3187C1.65037 10.1733 1.65037 9.9955 1.71541 9.84197C3.45524 5.81772 6.5528 3.41772 9.99183 3.41772H9.99996C11.7235 3.41772 13.3577 4.0157 14.7804 5.12277ZM10.0009 12.0947C11.1147 12.0947 12.0253 11.1897 12.0253 10.0826C12.0253 8.96746 11.1147 8.06241 10.0009 8.06241C9.90335 8.06241 9.80579 8.07049 9.71636 8.08665C9.68384 8.97554 8.95214 9.68665 8.0497 9.68665H8.00905C7.98466 9.81595 7.9684 9.94524 7.9684 10.0826C7.9684 11.1897 8.87896 12.0947 10.0009 12.0947Z" fill="#2D3442"/>
</g>
</svg>
