<svg width="21" height="21" viewBox="0 0 21 21" fill="none" xmlns="http://www.w3.org/2000/svg">
<path fill-rule="evenodd" clip-rule="evenodd" d="M8.50261 12.7953C9.02301 13.1481 9.65724 13.3614 10.3321 13.3614C12.121 13.3614 13.5765 11.8928 13.5765 10.0879C13.5765 9.40692 13.365 8.76699 13.0154 8.24192L12.1291 9.13618C12.2755 9.41513 12.3568 9.7433 12.3568 10.0879C12.3568 11.2119 11.4461 12.1307 10.3321 12.1307C9.99061 12.1307 9.66537 12.0487 9.38891 11.901L8.50261 12.7953ZM15.6905 5.54273C16.8695 6.62569 17.8697 8.08604 18.6177 9.84175C18.6828 9.99763 18.6828 10.1781 18.6177 10.3258C16.8777 14.4115 13.7797 16.8564 10.3321 16.8564H10.324C8.75466 16.8564 7.2504 16.3395 5.92502 15.396L4.34757 16.9876C4.22561 17.1107 4.07112 17.1681 3.91662 17.1681C3.76213 17.1681 3.59951 17.1107 3.48567 16.9876C3.28239 16.7825 3.24987 16.4544 3.41249 16.2164L3.43689 16.1836L15.4629 4.04956C15.4791 4.03315 15.4954 4.01674 15.5035 4.00033C15.5198 3.98392 15.536 3.96751 15.5442 3.95111L16.3085 3.17991C16.5524 2.94198 16.9346 2.94198 17.1704 3.17991C17.4143 3.41783 17.4143 3.81163 17.1704 4.04956L15.6905 5.54273ZM7.08185 10.0911C7.08185 10.3044 7.10624 10.5177 7.13877 10.7146L4.13024 13.7502C3.31712 12.7985 2.60971 11.6499 2.04866 10.329C1.98362 10.1813 1.98362 10.0008 2.04866 9.84495C3.78873 5.75924 6.8867 3.32258 10.3262 3.32258H10.3343C11.4971 3.32258 12.6273 3.60152 13.6681 4.12659L10.9523 6.86681C10.7571 6.83399 10.5457 6.80938 10.3343 6.80938C8.53732 6.80938 7.08185 8.27794 7.08185 10.0911Z" fill="#C0C3C7"/>
</svg>
