<svg width="46" height="43" viewBox="0 0 46 43" fill="none" xmlns="http://www.w3.org/2000/svg">
<path d="M0 21.3147C0 9.5429 9.5429 0 21.3147 0H24.2853C36.0571 0 45.6 9.5429 45.6 21.3147V21.3147C45.6 33.0864 36.0571 42.6293 24.2853 42.6293H21.3147C9.54291 42.6293 0 33.0864 0 21.3147V21.3147Z" fill="#50AED2" fill-opacity="0.06"/>
<path fill-rule="evenodd" clip-rule="evenodd" d="M29.1533 18.2234H33.4408C33.4408 14.8554 31.3781 12.888 27.8832 12.888H18.7317C15.2368 12.888 13.1741 14.8554 13.1741 18.1804V25.4403C13.1741 28.7653 15.2368 30.7328 18.7317 30.7328H27.8832C31.3781 30.7328 33.4408 28.7653 33.4408 25.4403V25.131H29.1533C27.1634 25.131 25.5503 23.5924 25.5503 21.6944C25.5503 19.7964 27.1634 18.2577 29.1533 18.2577V18.2234ZM29.1533 19.7011H32.6842C33.102 19.7011 33.4408 20.0242 33.4408 20.4228V22.9316C33.4359 23.3282 33.1 23.6486 32.6842 23.6533H29.2343C28.227 23.6662 27.3461 23.0083 27.1176 22.0724C27.0032 21.4914 27.1638 20.8919 27.5564 20.4345C27.9491 19.9772 28.5336 19.7087 29.1533 19.7011ZM29.3064 22.3388H29.6397C30.0675 22.3388 30.4143 22.0079 30.4143 21.5999C30.4143 21.1918 30.0675 20.861 29.6397 20.861H29.3064C29.1018 20.8587 28.9047 20.9346 28.7592 21.0718C28.6136 21.209 28.5317 21.3961 28.5318 21.5913C28.5317 22.0008 28.8771 22.334 29.3064 22.3388ZM17.9751 18.2234H23.6948C24.1226 18.2234 24.4694 17.8926 24.4694 17.4845C24.4694 17.0764 24.1226 16.7456 23.6948 16.7456H17.9751C17.5508 16.7456 17.2054 17.0712 17.2004 17.4759C17.2004 17.8854 17.5458 18.2187 17.9751 18.2234Z" fill="#50AED2"/>
</svg>
