<svg width="29" height="29" viewBox="0 0 29 29" fill="none" xmlns="http://www.w3.org/2000/svg">
<circle cx="14.3011" cy="14.3011" r="14.3011" fill="white" fill-opacity="0.1"/>
<path d="M18.0696 15.7552C17.6592 15.6669 17.3345 15.8575 17.047 16.0239C16.7525 16.1954 16.1927 16.6496 15.8718 16.5333C14.2287 15.8568 12.6834 14.4187 12.0145 12.7691C11.8966 12.4414 12.3486 11.8779 12.5189 11.58C12.6841 11.2916 12.8707 10.9639 12.7856 10.5504C12.7086 10.1788 11.7137 8.9128 11.3619 8.56662C11.1299 8.33794 10.8922 8.21217 10.6482 8.19185C9.73088 8.15246 8.70635 9.3765 8.52666 9.66933C8.0765 10.2937 8.07902 11.1246 8.53423 12.132C9.63126 14.838 13.7805 18.9217 16.4966 20.06C16.9978 20.2944 17.4562 20.4119 17.8679 20.4119C18.2707 20.4119 18.6295 20.2994 18.9378 20.0765C19.1704 19.9425 20.4446 18.8671 20.4112 17.9251C20.391 17.6849 20.2656 17.4448 20.0399 17.2124C19.6963 16.8573 18.4384 15.8327 18.0696 15.7552Z" fill="#66BFE1"/>
</svg>
