<svg width="45" height="43" viewBox="0 0 45 43" fill="none" xmlns="http://www.w3.org/2000/svg">
<path d="M0 21.5C0 9.62588 9.62588 0 21.5 0H23.5C35.3741 0 45 9.62588 45 21.5C45 33.3741 35.3741 43 23.5 43H21.5C9.62588 43 0 33.3741 0 21.5Z" fill="#50AED2" fill-opacity="0.06"/>
<path fill-rule="evenodd" clip-rule="evenodd" d="M22.7281 31.9137C22.8388 31.9715 22.9627 32.0009 23.0865 32C23.2103 31.999 23.3331 31.9686 23.4449 31.9097L27.0128 30.0025C28.0245 29.4631 28.8168 28.8601 29.435 28.1579C30.779 26.6282 31.5129 24.6758 31.4998 22.6626L31.4575 16.022C31.4535 15.2571 30.9511 14.5746 30.2082 14.3265L23.5707 12.0996C23.1711 11.9642 22.7331 11.9672 22.3405 12.1064L15.7282 14.4128C14.9893 14.6707 14.496 15.3581 14.5 16.124L14.5423 22.7597C14.5554 24.7758 15.3145 26.7194 16.6806 28.2335C17.3048 28.9258 18.1041 29.52 19.127 30.0505L22.7281 31.9137ZM21.7836 24.1089C21.9326 24.2521 22.1259 24.3227 22.3192 24.3207C22.5125 24.3198 22.7047 24.2472 22.8517 24.1021L26.7508 20.2581C27.0438 19.9688 27.0408 19.504 26.7448 19.2187C26.4478 18.9333 25.9696 18.9353 25.6766 19.2245L22.3081 22.5449L20.9289 21.2191C20.6319 20.9337 20.1547 20.9367 19.8607 21.226C19.5677 21.5152 19.5708 21.98 19.8678 22.2654L21.7836 24.1089Z" fill="#50AED2"/>
</svg>
