<svg width="46" height="44" viewBox="0 0 46 44" fill="none" xmlns="http://www.w3.org/2000/svg">
<path d="M0 22.0216C0 10.2498 9.5429 0.706909 21.3147 0.706909H24.2853C36.0571 0.706909 45.6 10.2498 45.6 22.0216V22.0216C45.6 33.7933 36.0571 43.3362 24.2853 43.3362H21.3147C9.54291 43.3362 0 33.7933 0 22.0216V22.0216Z" fill="#50AED2" fill-opacity="0.06"/>
<path fill-rule="evenodd" clip-rule="evenodd" d="M28.9038 17.953V19.4731C30.6491 20.0061 31.9208 21.5518 31.9208 23.398V28.2924C31.9208 30.578 29.9839 32.4311 27.5961 32.4311H19.0198C16.631 32.4311 14.6941 30.578 14.6941 28.2924V23.398C14.6941 21.5518 15.9668 20.0061 17.7111 19.4731V17.953C17.7214 14.9975 20.2235 12.6035 23.292 12.6035C26.4017 12.6035 28.9038 14.9975 28.9038 17.953ZM23.3126 14.3275C25.4029 14.3275 27.1019 15.9531 27.1019 17.953V19.2593H19.5131V17.9333C19.5234 15.9432 21.2223 14.3275 23.3126 14.3275ZM24.2084 26.9338C24.2084 27.4165 23.8069 27.8008 23.3023 27.8008C22.8081 27.8008 22.4065 27.4165 22.4065 26.9338V24.7467C22.4065 24.2738 22.8081 23.8896 23.3023 23.8896C23.8069 23.8896 24.2084 24.2738 24.2084 24.7467V26.9338Z" fill="#50AED2"/>
</svg>
