<svg width="47" height="47" viewBox="0 0 47 47" fill="none" xmlns="http://www.w3.org/2000/svg">
<circle cx="23.4043" cy="23.4043" r="23.4043" fill="white" fill-opacity="0.1"/>
<path fill-rule="evenodd" clip-rule="evenodd" d="M19.832 14.4043C20.252 14.4043 20.593 14.7387 20.593 15.1515C20.593 15.5634 20.253 15.8978 19.832 15.8978L18.203 15.8987C16.851 15.9007 15.751 16.9803 15.751 18.3071V20.1663C15.751 20.5782 15.409 20.9135 14.989 20.9135C14.569 20.9135 14.228 20.5782 14.228 20.1663V18.3071C14.228 16.1576 16.011 14.4072 18.202 14.4053L19.831 14.4043H19.832ZM27.0049 14.4046H28.5979C30.7949 14.4046 32.5809 16.1559 32.5809 18.3103V20.1666C32.5809 20.5785 32.2409 20.9138 31.8199 20.9138C31.3999 20.9138 31.0589 20.5785 31.0589 20.1666V18.3103C31.0589 16.9796 29.9549 15.8971 28.5979 15.8971H27.0049C26.5849 15.8971 26.2439 15.5637 26.2439 15.1518C26.2439 14.739 26.5849 14.4046 27.0049 14.4046ZM26.1668 18.147H20.6428C19.3788 18.1597 18.3628 19.1727 18.3738 20.4131V21.6585C18.3768 21.8036 18.4958 21.9223 18.6438 21.9272H28.1638C28.3128 21.9232 28.4318 21.8046 28.4368 21.6585V20.4131C28.4378 19.814 28.2018 19.2384 27.7758 18.8098C27.3528 18.3852 26.7718 18.147 26.1668 18.147ZM13.1663 23.4455H33.6433C34.0633 23.4455 34.4043 23.7799 34.4043 24.1927C34.4043 24.6046 34.0633 24.938 33.6433 24.938H32.5813V28.4976C32.5813 30.6529 30.7943 32.4043 28.5983 32.4043H27.0053C26.5843 32.4043 26.2433 32.0699 26.2433 31.6571C26.2433 31.2452 26.5843 30.9108 27.0053 30.9108H28.5983C29.9553 30.9108 31.0593 29.8292 31.0593 28.4976V24.938H28.4363V25.9294C28.4463 27.1699 27.4313 28.1838 26.1663 28.1956H20.6423C19.3783 28.1838 18.3633 27.1699 18.3733 25.9294V24.938H15.7503V28.5015C15.7503 29.8283 16.8513 30.9079 18.2043 30.9099L19.8323 30.9108C20.2523 30.9108 20.5933 31.2452 20.5933 31.6571C20.5923 32.0699 20.2523 32.4043 19.8313 32.4043L18.2023 32.4033C16.0113 32.4014 14.2273 30.651 14.2273 28.5015V24.938H13.1663C12.7463 24.938 12.4043 24.6046 12.4043 24.1927C12.4043 23.7799 12.7463 23.4455 13.1663 23.4455Z" fill="#66BFE1"/>
</svg>
