<svg width="89" height="118" viewBox="0 0 89 118" fill="none" xmlns="http://www.w3.org/2000/svg">
<path d="M9.50236 83.2855C7.43593 83.2855 5.67338 83.4885 4.7245 83.7264V97.5163C4.7245 97.8211 4.52285 98.0247 4.21567 98.0247H0.760781C0.557247 98.0247 0.18457 97.8211 0.18457 97.5163V82.8798C0.18457 81.5587 0.964309 81.1516 2.59069 80.6772C4.08092 80.2028 6.48705 79.8631 8.41873 79.8306H8.99305C9.46749 79.8306 9.46749 79.8306 9.70542 79.9323C9.84017 79.9997 10.0107 80.1349 10.0107 80.4737V82.6763C10.0107 83.0141 9.97633 83.2855 9.50236 83.2855Z" fill="#EFEEEE"/>
<path d="M28.5086 90.4348C28.5086 90.8084 28.3051 91.2136 27.7962 91.2136H16.446C16.446 92.773 16.8874 93.6192 17.8014 94.3311C18.6829 95.0425 19.971 95.3478 21.801 95.3478C23.8999 95.3478 25.4938 94.839 26.5439 94.5342C26.6113 94.5007 26.6457 94.5007 26.7131 94.5007C26.9166 94.5007 27.0858 94.635 27.1871 94.9751L27.629 96.7033C27.629 96.7367 27.6615 96.8041 27.6615 96.872C27.6615 97.1429 27.4924 97.279 27.2563 97.3808C26.1025 97.8552 23.8 98.464 21.123 98.464C14.4808 98.464 11.873 95.8557 11.873 89.214C11.873 82.8442 13.6342 79.7954 20.242 79.7954C23.6639 79.7954 25.7647 80.6765 26.984 82.3028C28.1378 83.8275 28.5086 85.9956 28.5086 88.8079V90.4348ZM23.7331 85.3865C23.2917 83.5231 22.2759 82.9125 20.2768 82.9125C18.0068 82.9125 17.0566 83.59 16.6843 85.2847C16.4464 86.2345 16.4464 87.2154 16.4153 88.3344L24.0026 88.3005C24.0021 87.2154 23.9692 86.3014 23.7331 85.3865Z" fill="#EFEEEE"/>
<path d="M46.0582 96.9742C46.0582 97.2451 45.8895 97.3813 45.6855 97.4821C44.8389 97.9231 42.3654 98.3627 39.9936 98.3627C33.3863 98.3627 31.5908 95.313 31.5908 89.0802C31.5908 82.8795 33.3863 79.7959 39.9936 79.7959C42.3654 79.7959 44.8389 80.2703 45.6855 80.6769C45.8895 80.8126 46.0582 80.9478 46.0582 81.2183C46.0582 81.2527 46.0582 81.3205 46.0238 81.3874L45.6855 83.2173C45.6181 83.5226 45.3816 83.6244 45.1767 83.6244C45.1093 83.6244 45.0424 83.6244 44.975 83.59C44.2283 83.387 42.6014 82.9813 40.9425 82.9813C37.2822 82.9813 36.1995 84.5389 36.1995 89.0798C36.1995 93.6192 37.2827 95.2112 40.9425 95.2112C42.6014 95.2112 44.2283 94.806 44.975 94.6025H45.1767C45.3821 94.6025 45.6186 94.6699 45.6855 94.9752L46.0238 96.7707C46.0582 96.8381 46.0582 96.9059 46.0582 96.9742Z" fill="#EFEEEE"/>
<path d="M53.9526 98.0243H50.4959C50.191 98.0243 49.9526 97.8208 49.9526 97.5159V81.0495C49.9526 80.7447 50.191 80.5407 50.4959 80.5407H53.9526C54.2561 80.5407 54.4596 80.7447 54.4596 81.0495V97.5159C54.4596 97.8208 54.2561 98.0243 53.9526 98.0243ZM53.6473 77.932H50.7998C50.2598 77.932 49.987 77.695 49.987 77.1536V73.3247C49.987 72.7833 50.2598 72.5449 50.7998 72.5449H53.6473C54.1887 72.5449 54.4601 72.7833 54.4601 73.3247V77.1536C54.4596 77.695 54.1887 77.932 53.6473 77.932Z" fill="#EFEEEE"/>
<path d="M69.9778 97.1777C69.9778 97.4138 69.8431 97.6178 69.5726 97.6856C68.9946 97.8552 67.5062 98.3297 65.3366 98.3297C61.4751 98.3297 59.543 96.8376 59.543 93.0095V75.5603C59.543 75.1542 59.7465 74.9506 60.1192 74.8484L63.4393 74.2383H63.6085C63.9133 74.2383 64.0843 74.4088 64.0843 74.781V80.2359H68.9277C69.2325 80.2359 69.436 80.4385 69.436 80.7438V83.0482C69.436 83.353 69.2325 83.5226 68.9277 83.5226H64.0843V92.9078C64.0843 94.3989 64.6935 95.0086 66.4542 95.0086C67.4718 95.0086 68.4532 94.839 69.0294 94.7042H69.1656C69.3672 94.7042 69.5039 94.839 69.5383 95.0769L69.9449 97.0081C69.9449 97.076 69.9778 97.1089 69.9778 97.1777Z" fill="#EFEEEE"/>
<path d="M88.8153 90.4348C88.8153 90.8084 88.6112 91.2136 88.1024 91.2136H76.7521C76.7521 92.773 77.1941 93.6192 78.1081 94.3311C78.9891 95.0425 80.2763 95.3478 82.1057 95.3478C84.2065 95.3478 85.8004 94.839 86.8487 94.5342C86.9175 94.5007 86.9524 94.5007 87.0193 94.5007C87.2214 94.5007 87.3919 94.635 87.4937 94.9751L87.9338 96.7033C87.9338 96.7367 87.9682 96.8041 87.9682 96.872C87.9682 97.1429 87.7995 97.279 87.563 97.3808C86.4091 97.8552 84.1067 98.464 81.4296 98.464C74.7875 98.464 72.1797 95.8557 72.1797 89.214C72.1797 82.8442 73.9403 79.7954 80.5481 79.7954C83.97 79.7954 86.0709 80.6765 87.2906 82.3028C88.4426 83.8275 88.8153 85.9956 88.8153 88.8079V90.4348ZM84.0379 85.3865C83.5978 83.5231 82.5802 82.9125 80.583 82.9125C78.3116 82.9125 77.3627 83.59 76.9905 85.2847C76.7521 86.2345 76.7521 87.2154 76.7196 88.3344L84.3083 88.3005C84.3083 87.2154 84.2758 86.3014 84.0379 85.3865Z" fill="#EFEEEE"/>
<path d="M73.0703 0.610402V0.53125H68.8046C61.2847 0.53125 52.1719 0.539731 44.7754 5.54939L44.7702 5.54374L44.7217 5.58331C43.6121 6.33903 42.5394 7.20263 41.5193 8.20192L41.5174 8.20381C41.0105 8.69992 40.4805 9.23325 39.9391 9.8005C39.7431 10.0045 39.549 10.2151 39.3544 10.4267C38.9997 10.8106 38.643 11.2064 38.2854 11.6201L38.2694 11.637L38.2699 11.638C38.2435 11.6686 38.2176 11.7011 38.1912 11.7317C38.1686 11.7586 38.145 11.7821 38.1224 11.809C38.1233 11.8095 38.1243 11.8099 38.1252 11.8104C34.9304 15.548 31.8001 20.4516 31.0458 26.4375C30.594 30.0036 31.8529 33.7713 34.5007 36.7748C37.1895 39.8255 40.8338 41.5748 44.5012 41.5748C48.1662 41.5748 51.811 39.825 54.4998 36.7762C57.1471 33.7727 58.4065 30.004 57.9561 26.4389C57.3436 21.5777 55.1603 17.433 52.6524 14.0422C51.0326 14.8851 48.5591 16.8149 46.3141 19.8608C48.137 22.4964 49.1768 25.0024 49.4925 27.5075C49.6324 28.6113 49.0995 30.0012 48.0993 31.1348C47.0628 32.3122 45.6828 33.0443 44.5012 33.0443C43.3177 33.0443 41.9382 32.3122 40.8998 31.1348C39.9028 30.0017 39.37 28.6132 39.5094 27.5065C39.9184 24.2603 41.524 21.0179 44.4993 17.4919C44.5045 17.4971 44.5083 17.5023 44.513 17.5075C44.8348 17.0966 45.1622 16.7098 45.4925 16.3343L47.4896 14.2957C47.6173 14.1704 47.7521 14.061 47.8821 13.9423C48.529 13.3774 49.1636 12.8874 49.7751 12.4672C53.6682 9.91311 58.5869 9.25822 64.6322 9.10746V33.996L44.4993 49.6276L24.3664 33.996V9.10698C28.5822 9.21393 32.2496 9.56352 35.4048 10.6297C37.492 8.07142 39.6616 5.90793 41.8986 4.17035C34.9737 0.548211 26.945 0.53125 20.194 0.53125H15.9287V0.610402H15.8359V38.1722L44.4998 60.4266L73.1636 38.1722V0.610402H73.0703V0.610402Z" fill="#66BFE1"/>
<path d="M8.34131 107.582H10.1557V117.306H8.34131V107.582Z" fill="#66BFE1"/>
<path d="M12.6762 115.655V111.645H11.7354V110.322H12.6762V108.208H14.3398V110.322H15.856V111.645H14.3398V115.26C14.3398 115.778 14.6122 115.929 14.9952 115.929C15.3377 115.929 15.5262 115.915 15.856 115.86V117.278C15.4861 117.374 14.8727 117.415 14.6263 117.415C13.5497 117.415 12.6762 116.897 12.6762 115.655Z" fill="#66BFE1"/>
<path d="M18.007 109.505H17.4082V107.512H19.1934V109.435L18.4848 111.427H17.6L18.007 109.505Z" fill="#66BFE1"/>
<path d="M20.1885 116.106L21.3611 115.219C21.7974 115.792 22.4928 116.133 23.2853 116.133C23.9656 116.133 24.6624 115.901 24.6624 115.274C24.6624 114.728 24.2935 114.604 23.3517 114.441L22.4391 114.277C21.2938 114.073 20.5301 113.514 20.5301 112.463C20.5301 111.003 21.8116 110.171 23.2966 110.171C24.5541 110.171 25.4526 110.486 26.0401 111.318L24.8387 112.136C24.4316 111.658 23.9656 111.454 23.2858 111.454C22.6309 111.454 22.1517 111.7 22.1517 112.231C22.1517 112.723 22.7538 112.79 23.4766 112.927L24.5268 113.132C25.7136 113.364 26.3948 114.032 26.3948 115.083C26.3948 116.692 24.7444 117.456 23.3126 117.456C22.0566 117.456 20.8834 117.128 20.1885 116.106Z" fill="#66BFE1"/>
<path d="M31.5459 115.328C31.5459 113.978 32.7723 113.174 34.1235 113.174H35.9784V112.532C35.9784 111.796 35.4884 111.482 34.6418 111.482C33.9181 111.482 33.3876 111.728 33.3876 112.179V112.424H31.887V112.232C31.887 110.705 33.348 110.187 34.655 110.187C36.2088 110.187 37.6411 110.705 37.6411 112.41V115.806C37.6411 116.12 37.6816 117.157 37.7645 117.307H36.1155C36.0863 117.199 36.0585 116.775 36.0467 116.666H36.0185C35.405 117.307 34.8722 117.443 33.9718 117.443C32.5273 117.442 31.5459 116.651 31.5459 115.328ZM35.9784 114.728V114.387H34.3426C33.6321 114.387 33.169 114.632 33.169 115.246C33.169 115.832 33.6467 116.133 34.4246 116.133C35.7612 116.133 35.9784 115.478 35.9784 114.728Z" fill="#66BFE1"/>
<path d="M39.7822 115.437V107.582H41.4449V115.424C41.4449 115.738 41.5966 115.997 42.047 115.997C42.3452 115.997 42.5092 115.969 42.8093 115.942V117.21C42.456 117.306 41.909 117.402 41.4727 117.402C39.8237 117.402 39.7822 116.064 39.7822 115.437Z" fill="#66BFE1"/>
<path d="M44.3887 115.437V107.582H46.0532V115.424C46.0532 115.738 46.203 115.997 46.653 115.997C46.9531 115.997 47.1171 115.969 47.4181 115.942V117.21C47.0629 117.306 46.5159 117.402 46.0805 117.402C44.4297 117.402 44.3887 116.064 44.3887 115.437Z" fill="#66BFE1"/>
<path d="M52.814 107.582H54.4804V111.182H54.5209C54.9836 110.514 55.7204 110.186 56.4432 110.186C58.0126 110.186 58.8856 111.169 58.8856 112.832V117.306H57.221V113.254C57.221 112.204 56.7692 111.645 55.924 111.645C55.0104 111.645 54.4809 112.205 54.4809 113.391V117.306H52.8144V107.582H52.814Z" fill="#66BFE1"/>
<path d="M60.6812 114.619V113.254C60.6812 111.291 62.1558 110.2 63.8877 110.2C65.402 110.2 66.9016 111.086 66.9016 112.942V114.291H62.414V114.673C62.414 115.56 63.1372 116.077 64.0249 116.077C64.5832 116.077 65.1711 115.71 65.5382 115.178L66.8201 115.914C66.2731 117.005 65.1711 117.469 63.9415 117.469C62.2232 117.47 60.6812 116.529 60.6812 114.619ZM65.2376 113.132V112.943C65.2376 111.987 64.5686 111.606 63.8873 111.606C63.1773 111.606 62.4135 111.987 62.4135 113.037V113.132H65.2376Z" fill="#66BFE1"/>
<path d="M68.7251 110.323H70.3482V111.482H70.3774C70.7854 110.745 71.821 110.186 72.6544 110.186C72.832 110.186 73.0365 110.186 73.2132 110.228V111.755C72.996 111.714 72.8193 111.714 72.5856 111.714C71.3296 111.714 70.3915 112.437 70.3915 113.732V117.306H68.7256V110.323H68.7251Z" fill="#66BFE1"/>
<path d="M74.439 114.619V113.254C74.439 111.291 75.9127 110.2 77.6441 110.2C79.1589 110.2 80.659 111.086 80.659 112.942V114.291H76.1714V114.673C76.1714 115.56 76.895 116.077 77.7808 116.077C78.341 116.077 78.9261 115.71 79.296 115.178L80.5784 115.914C80.0319 117.005 78.9261 117.469 77.6997 117.469C75.9805 117.47 74.439 116.529 74.439 114.619ZM78.9949 113.132V112.943C78.9949 111.987 78.3273 111.606 77.6441 111.606C76.9355 111.606 76.1714 111.987 76.1714 113.037V113.132H78.9949Z" fill="#66BFE1"/>
</svg>
