<svg width="34" height="34" viewBox="0 0 34 34" fill="none" xmlns="http://www.w3.org/2000/svg">
<path fill-rule="evenodd" clip-rule="evenodd" d="M11.0642 2.83337H22.9373C27.3133 2.83337 29.75 5.35504 29.75 9.67587V24.31C29.75 28.7017 27.3133 31.1667 22.9373 31.1667H11.0642C6.7575 31.1667 4.25 28.7017 4.25 24.31V9.67587C4.25 5.35504 6.7575 2.83337 11.0642 2.83337ZM11.4467 9.43504V9.42087H15.6811C16.2917 9.42087 16.7875 9.91671 16.7875 10.5245C16.7875 11.1492 16.2917 11.645 15.6811 11.645H11.4467C10.8361 11.645 10.3417 11.1492 10.3417 10.54C10.3417 9.93087 10.8361 9.43504 11.4467 9.43504ZM11.4467 18.0484H22.5533C23.1625 18.0484 23.6583 17.5525 23.6583 16.9434C23.6583 16.3342 23.1625 15.837 22.5533 15.837H11.4467C10.8361 15.837 10.3417 16.3342 10.3417 16.9434C10.3417 17.5525 10.8361 18.0484 11.4467 18.0484ZM11.4467 24.5225H22.5533C23.1186 24.4659 23.545 23.9828 23.545 23.4175C23.545 22.8367 23.1186 22.355 22.5533 22.2984H11.4467C11.0217 22.2559 10.6108 22.4542 10.3842 22.8225C10.1575 23.1767 10.1575 23.6442 10.3842 24.0125C10.6108 24.3667 11.0217 24.5792 11.4467 24.5225Z" fill="#7364EE"/>
</svg>
