<svg width="33" height="22" viewBox="0 0 33 22" fill="none" xmlns="http://www.w3.org/2000/svg">
<path d="M20.1667 20.1665C20.1667 19.6165 20.35 19.2498 20.7167 18.8832L29.8833 9.7165C30.6167 8.98317 31.7167 8.98317 32.45 9.7165C33.1833 10.4498 33.1833 11.5498 32.45 12.2832L23.2833 21.4498C22.55 22.1832 21.45 22.1832 20.7167 21.4498C20.35 21.0832 20.1667 20.7165 20.1667 20.1665Z" fill="white"/>
<path d="M20.1667 1.83333C20.1667 1.28333 20.35 0.916666 20.7167 0.55C21.45 -0.183334 22.55 -0.183334 23.2833 0.55L32.45 9.71667C33.1833 10.45 33.1833 11.55 32.45 12.2833C31.7167 13.0167 30.6167 13.0167 29.8833 12.2833L20.7167 3.11667C20.35 2.75 20.1667 2.38333 20.1667 1.83333Z" fill="white"/>
<path d="M-8.01376e-08 10.9998C-3.2055e-08 9.89984 0.733334 9.1665 1.83333 9.1665L31.1667 9.1665C32.2667 9.1665 33 9.89984 33 10.9998C33 12.0998 32.2667 12.8332 31.1667 12.8332L1.83333 12.8332C0.733333 12.8332 -1.2822e-07 12.0998 -8.01376e-08 10.9998Z" fill="white"/>
</svg>
