<svg width="46" height="43" viewBox="0 0 46 43" fill="none" xmlns="http://www.w3.org/2000/svg">
<path d="M0 21.6682C0 9.89641 9.5429 0.353516 21.3147 0.353516H24.2853C36.0571 0.353516 45.6 9.89641 45.6 21.6682V21.6682C45.6 33.4399 36.0571 42.9828 24.2853 42.9828H21.3147C9.54291 42.9828 0 33.4399 0 21.6682V21.6682Z" fill="#50AED2" fill-opacity="0.06"/>
<path fill-rule="evenodd" clip-rule="evenodd" d="M30.8081 22.7389C31.1705 22.9273 31.4501 23.2247 31.6469 23.5221C32.0301 24.1368 31.999 24.8902 31.6262 25.5544L30.9013 26.7441C30.5181 27.3786 29.8036 27.7751 29.0683 27.7751C28.7058 27.7751 28.302 27.676 27.9706 27.4777C27.7013 27.3092 27.3906 27.2497 27.0593 27.2497C26.034 27.2497 25.1745 28.0725 25.1434 29.054C25.1434 30.1941 24.1907 31.0863 22.9998 31.0863H21.5914C20.3901 31.0863 19.4374 30.1941 19.4374 29.054C19.4166 28.0725 18.5571 27.2497 17.5319 27.2497C17.1901 27.2497 16.8795 27.3092 16.6206 27.4777C16.2892 27.676 15.875 27.7751 15.5229 27.7751C14.7772 27.7751 14.0627 27.3786 13.6795 26.7441L12.965 25.5544C12.5818 24.91 12.5611 24.1368 12.9443 23.5221C13.1099 23.2247 13.4206 22.9273 13.7727 22.7389C14.0627 22.6001 14.2491 22.3721 14.4251 22.1044C14.9429 21.2518 14.6323 20.1316 13.752 19.626C12.7268 19.0609 12.3954 17.8018 12.9857 16.8204L13.6795 15.6506C14.2802 14.6691 15.5643 14.3221 16.5999 14.8971C17.5008 15.373 18.671 15.0557 19.1992 14.2131C19.3649 13.9355 19.4581 13.6381 19.4374 13.3406C19.4166 12.954 19.5306 12.5872 19.7273 12.2898C20.1105 11.6751 20.8043 11.2786 21.5603 11.2587H23.0205C23.7868 11.2587 24.4807 11.6751 24.8638 12.2898C25.0502 12.5872 25.1745 12.954 25.1434 13.3406C25.1227 13.6381 25.2159 13.9355 25.3816 14.2131C25.9098 15.0557 27.08 15.373 27.9913 14.8971C29.0165 14.3221 30.311 14.6691 30.9013 15.6506L31.5951 16.8204C32.1957 17.8018 31.8644 19.0609 30.8288 19.626C29.9485 20.1316 29.6379 21.2518 30.166 22.1044C30.3317 22.3721 30.5181 22.6001 30.8081 22.7389ZM19.3649 21.1825C19.3649 22.7389 20.6801 23.9781 22.3059 23.9781C23.9318 23.9781 25.2159 22.7389 25.2159 21.1825C25.2159 19.626 23.9318 18.3768 22.3059 18.3768C20.6801 18.3768 19.3649 19.626 19.3649 21.1825Z" fill="#50AED2"/>
</svg>
