<svg width="45" height="43" viewBox="0 0 45 43" fill="none" xmlns="http://www.w3.org/2000/svg">
<path d="M0 21.5C0 9.62588 9.62588 0 21.5 0H23.5C35.3741 0 45 9.62588 45 21.5C45 33.3741 35.3741 43 23.5 43H21.5C9.62588 43 0 33.3741 0 21.5Z" fill="#50AED2" fill-opacity="0.06"/>
<path fill-rule="evenodd" clip-rule="evenodd" d="M18.5083 13.6667H25.4925C28.0667 13.6667 29.5 15.1501 29.5 17.6917V26.3001C29.5 28.8834 28.0667 30.3334 25.4925 30.3334H18.5083C15.975 30.3334 14.5 28.8834 14.5 26.3001V17.6917C14.5 15.1501 15.975 13.6667 18.5083 13.6667ZM18.7333 17.5501V17.5417H21.2241C21.5833 17.5417 21.8749 17.8334 21.8749 18.1909C21.8749 18.5584 21.5833 18.8501 21.2241 18.8501H18.7333C18.3741 18.8501 18.0833 18.5584 18.0833 18.2001C18.0833 17.8417 18.3741 17.5501 18.7333 17.5501ZM18.7333 22.6167H25.2666C25.6249 22.6167 25.9166 22.3251 25.9166 21.9667C25.9166 21.6084 25.6249 21.3159 25.2666 21.3159H18.7333C18.3741 21.3159 18.0833 21.6084 18.0833 21.9667C18.0833 22.3251 18.3741 22.6167 18.7333 22.6167ZM18.7333 26.4251H25.2666C25.5991 26.3917 25.8499 26.1076 25.8499 25.7751C25.8499 25.4334 25.5991 25.1501 25.2666 25.1167H18.7333C18.4833 25.0917 18.2416 25.2084 18.1083 25.4251C17.9749 25.6334 17.9749 25.9084 18.1083 26.1251C18.2416 26.3334 18.4833 26.4584 18.7333 26.4251Z" fill="#50AED2"/>
</svg>
