<svg width="16" height="4" viewBox="0 0 16 4" fill="none" xmlns="http://www.w3.org/2000/svg">
<path d="M2.39423 3.08552C1.54414 3.08552 0.853516 2.3949 0.853516 1.54609C0.853516 0.697279 1.54414 0.00537109 2.39423 0.00537109C3.24433 0.00537109 3.93495 0.697279 3.93495 1.54609C3.93495 2.3949 3.24433 3.08552 2.39423 3.08552Z" fill="#2D3442"/>
<path d="M8.15595 3.08552C7.30586 3.08552 6.61523 2.3949 6.61523 1.54609C6.61523 0.697279 7.30586 0.00537109 8.15595 0.00537109C9.00605 0.00537109 9.69667 0.697279 9.69667 1.54609C9.69667 2.3949 9.00605 3.08552 8.15595 3.08552Z" fill="#2D3442"/>
<path d="M13.9147 3.08552C13.0646 3.08552 12.374 2.3949 12.374 1.54609C12.374 0.697279 13.0646 0.00537109 13.9147 0.00537109C14.7648 0.00537109 15.4555 0.697279 15.4555 1.54609C15.4555 2.3949 14.7648 3.08552 13.9147 3.08552Z" fill="#2D3442"/>
</svg>
