<svg width="12" height="8" viewBox="0 0 12 8" fill="none" xmlns="http://www.w3.org/2000/svg">
<path d="M1.92528 6.85793L1.92546 6.85814L1.91954 6.86262C1.66895 7.05228 1.3132 7.03107 1.08637 6.79969C0.837876 6.54621 0.837876 6.13605 1.08637 5.88257L5.78379 1.09094L5.78359 1.09075L5.78911 1.0859L5.84953 1.03269L5.84935 1.03248L5.85527 1.028C6.10585 0.838344 6.4616 0.859556 6.68844 1.09094L11.3859 5.88257L11.386 5.88238L11.3908 5.88797L11.4429 5.9496L11.4431 5.94943L11.4475 5.95538C11.6321 6.20924 11.6119 6.56907 11.3859 6.79969L11.386 6.79987L11.3805 6.80473L11.3201 6.85793L11.3203 6.85814L11.3144 6.86262C11.0638 7.05228 10.708 7.03107 10.4812 6.79969L6.23611 2.46928L1.99102 6.79968L1.99121 6.79987L1.9857 6.80473L1.92528 6.85793Z" fill="#2D3442" stroke="#2D3442" stroke-width="0.2"/>
</svg>
